{"title":"Brooklyn.Castle.2012.DvdRip.x264","uid":8746120,"size":1355966097,"categoryP":"video","categoryS":"movies","magnet":"?xt=urn:btih:1870852acb009f801940c82a355c53bdc811c340&amp;dn=Brooklyn.Castle.2012.DvdRip.x264&amp;tr=udp%3A%2F%2Ftracker.openbittorrent.com%3A80&amp;tr=udp%3A%2F%2Fopen.demonii.com%3A1337&amp;tr=udp%3A%2F%2Ftracker.coppersurfer.tk%3A6969&amp;tr=udp%3A%2F%2Fexodus.desync.com%3A6969","seeders":5,"leechers":1,"uploader":"ag2013","files":3,"time":1374926182,"description":"This is my first torrent. I was looking for good quality upload for this documentary but could not find anything other then a complete DVD upload which I used as source. All credits to the DVD uploader: &lt;a href=&quot;\nhttp://kickass.to/brooklyn-castle-2012-dvdr-iguana-t7474602.html&quot; rel=&quot;nofollow&quot; target=&quot;_NEW&quot;&gt;\nhttp://kickass.to/brooklyn-castle-2012-dvdr-iguana-t7474602.html&lt;/a&gt;\n\nscreenshots: &lt;a href=&quot;\nhttp://bayimg.com/FANimAaep&quot; rel=&quot;nofollow&quot; target=&quot;_NEW&quot;&gt;\nhttp://bayimg.com/FANimAaep&lt;/a&gt;\n\nFile info:\n  General\n    Complete name : Brooklyn.Castle.2012.DvdRip.mp4\n    Format : MPEG-4\n    Format profile : Base Media / Version 2\n    Codec ID : mp42\n    File size : 1.26 GiB\n    Duration : 1h 42mn\n    Overall bit rate mode : Variable\n    Overall bit rate : 1 768 Kbps\n    Encoded date : UTC 2013-07-27 07:17:03\n    Tagged date : UTC 2013-07-27 08:24:47\n    Writing application : HandBrake 0.9.9 2013051800\n  Video #1\n    ID : 1\n    Format : AVC\n    Format/Info : Advanced Video Codec\n    Format profile : &lt;a class=&quot;__cf_email__&quot; href=&quot;/cdn-cgi/l/email-protection&quot; data-cfemail=&quot;561b373f38161a627866&quot;&gt;[email&amp;#160;protected]&lt;/a&gt;&lt;script cf-hash='f9e31' type=&quot;text/javascript&quot;&gt;\n/* &lt;![CDATA[ */!function(){try{var t=&quot;currentScript&quot;in document?document.currentScript:function(){for(var t=document.getElementsByTagName(&quot;script&quot;),e=t.length;e--;)if(t[e].getAttribute(&quot;cf-hash&quot;))return t[e]}();if(t&amp;&amp;t.previousSibling){var e,r,n,i,c=t.previousSibling,a=c.getAttribute(&quot;data-cfemail&quot;);if(a){for(e=&quot;&quot;,r=parseInt(a.substr(0,2),16),n=2;a.length-n;n+=2)i=parseInt(a.substr(n,2),16)^r,e+=String.fromCharCode(i);e=document.createTextNode(e),c.parentNode.replaceChild(e,c)}}}catch(u){}}();/* ]]&gt; */&lt;/script&gt;\n    Format settings, CABAC : Yes\n    Format settings, ReFrames : 4 frames\n    Codec ID : avc1\n    Codec ID/Info : Advanced Video Coding\n    Duration : 1h 42mn\n    Bit rate mode : Variable\n    Bit rate : 1 602 Kbps\n    Width : 720 pixels\n    Height : 480 pixels\n    Display aspect ratio : 16:9\n    Original display aspect ratio : 16:9\n    Frame rate mode : Variable\n    Frame rate : 23.976 fps\n    Minimum frame rate : 19.965 fps\n    Maximum frame rate : 29.970 fps\n    Standard : NTSC\n    Color space : YUV\n    Chroma subsampling : 4:2:0\n    Bit depth : 8 bits\n    Scan type : Progressive\n    Bits/(Pixel*Frame) : 0.193\n    Stream size : 1.14 GiB (91%)\n    Writing library : x264 core 130 r2273 b3065e6\n    Encoding settings : cabac=1 // deblock=1:0:0 / analyse=0x1:0x111 / me=hex / subme=7 / psy=1 / psy_rd=1.00:0.00 // me_range=16 / chroma_me=1 / trellis=1 / 8x8dct=0 / cqm=0 / deadzone=21,11 / fast_pskip=1 / chroma_qp_offset=-2 / threads=6 / lookahead_threads=1 / sliced_threads=0 / nr=0 / decimate=1 / interlaced=0 / bluray_compat=0 / constrained_intra=0 / bframes=3 / b_pyramid=2 / b_adapt=1 / b_bias=0 / direct=1 / weightb=1 / open_gop=0 / weightp=2 / keyint=240 / keyint_min=24 / scenecut=40 / intra_refresh=0 / rc_lookahead=40 / rc=crf / mbtree=1 / crf=19.0 / qcomp=0.60 / qpmin=0 / qpmax=69 / qpstep=4 / vbv_maxrate=20000 / vbv_bufsize=25000 / crf_max=0.0 / nal_hrd=none / ip_ratio=1.40 / aq=1:1.00\n    Encoded date : UTC 2013-07-27 07:17:03\n    Tagged date : UTC 2013-07-27 08:24:47\n    Color primaries : BT.601 NTSC\n    Transfer characteristics : BT.709\n    Matrix coefficients : BT.601\n  Audio #2\n    ID : 2\n    Format : AAC\n    Format/Info : Advanced Audio Codec\n    Format profile : LC\n    Codec ID : 40\n    Duration : 1h 42mn\n    Bit rate mode : Variable\n    Bit rate : 160 Kbps\n    Maximum bit rate : 281 Kbps\n    Channel(s) : 2 channels\n    Channel positions : Front: L R\n    Sampling rate : 48.0 KHz\n    Compression mode : Lossy\n    Delay relative to video : 83ms\n    Stream size : 117 MiB (9%)\n    Language : English\n    Encoded date : UTC 2013-07-27 07:17:03\n    Tagged date : UTC 2013-07-27 08:24:47","torrent":{"xt":"urn:btih:1870852acb009f801940c82a355c53bdc811c340","amp;dn":"Brooklyn.Castle.2012.DvdRip.x264","amp;tr":["udp%3A%2F%2Ftracker.openbittorrent.com%3A80","udp%3A%2F%2Fopen.demonii.com%3A1337","udp%3A%2F%2Ftracker.coppersurfer.tk%3A6969","udp%3A%2F%2Fexodus.desync.com%3A6969"],"infoHash":"1870852acb009f801940c82a355c53bdc811c340","infoHashBuffer":{"type":"Buffer","data":[24,112,133,42,203,0,159,128,25,64,200,42,53,92,83,189,200,17,195,64]},"announce":[],"urlList":[]}}